
<svg xmlns="http://www.w3.org/2000/svg" viewBox="0 0 800 800">
  <path d="M600 100H200c-55.229 0-100 44.771-100 100v400c0 55.229 44.771 100 100 100h400c55.229 0 100-44.771 100-100V200c0-55.229-44.771-100-100-100z" fill="#3b82f6"/>
  <path d="M550 150H250c-27.614 0-50 22.386-50 50v200c0 27.614 22.386 50 50 50h300c27.614 0 50-22.386 50-50V200c0-27.614-22.386-50-50-50z" fill="#e2e2e2"/>
  <rect x="300" y="200" width="200" height="150" fill="#fff"/>
  <rect x="350" y="400" width="100" height="50" fill="#3b82f6"/>
</svg>